<?xml version="1.0" encoding="UTF-8"?>
<svg xmlns="http://www.w3.org/2000/svg" version="1.1" viewBox="0 0 105 40">
  <defs>
    <style>
      .cls-1 {
        fill: #777;
      }
    </style>
  </defs>
  <!-- Generator: Adobe Illustrator 28.6.0, SVG Export Plug-In . SVG Version: 1.2.0 Build 709)  -->
  <g>
      <g>
        <path class="cls-1" d="M43.8,13.3v13.3h-2.3v-10.5h0l-4.1,10.5h-1.5l-4.2-10.5h0v10.5h-2.1v-13.3h3.3l3.8,9.9h0l4-9.9h3.1ZM45.8,14.3c0-.4.1-.7.4-.9.3-.2.6-.4,1-.4s.7.1,1,.4c.2.2.4.6.4.9s-.1.7-.4.9c-.3.2-.6.4-1,.4s-.7-.1-1-.4c-.2-.3-.4-.6-.4-.9ZM48.3,17.1v9.6h-2.3v-9.6h2.3ZM55.1,25c.3,0,.7,0,1.1-.2.4-.2.8-.4,1.1-.6v2.1c-.4.2-.8.4-1.2.5-.5,0-1,.2-1.5.2-1.4,0-2.6-.4-3.4-1.3-.9-.9-1.3-2-1.3-3.4s.5-2.8,1.4-3.8c.9-1,2.2-1.5,3.8-1.5s.9,0,1.3.2c.4,0,.8.2,1,.4v2.2c-.3-.2-.7-.5-1-.6-.4-.1-.7-.2-1.1-.2-.9,0-1.6.3-2.2.9-.6.6-.8,1.4-.8,2.3s.3,1.7.8,2.3c.5.5,1.2.8,2.1.8ZM63.7,16.9c.2,0,.3,0,.5,0,.2,0,.3,0,.4,0v2.3c-.1,0-.3-.2-.5-.2-.2,0-.5-.1-.8-.1-.6,0-1,.2-1.4.7-.4.5-.6,1.2-.6,2.2v4.8h-2.3v-9.6h2.3v1.5h0c.2-.5.5-.9.9-1.2.4-.3.9-.4,1.5-.4ZM64.7,22c0-1.6.5-2.8,1.3-3.8.9-.9,2.1-1.4,3.7-1.4s2.7.4,3.5,1.3c.8.9,1.3,2.1,1.3,3.6s-.5,2.8-1.3,3.7c-.9.9-2.1,1.4-3.6,1.4s-2.7-.4-3.5-1.3c-.9-.9-1.3-2.1-1.3-3.6ZM67,21.9c0,1,.2,1.8.7,2.3.5.5,1.1.8,1.9.8s1.4-.2,1.9-.8c.4-.5.6-1.3.6-2.3s-.2-1.8-.6-2.3c-.4-.5-1.1-.8-1.9-.8s-1.4.3-1.9.8c-.5.6-.7,1.4-.7,2.4ZM77.8,19.6c0,.3,0,.6.3.8.2.2.6.4,1.4.7.9.4,1.5.8,1.9,1.2.4.5.6,1,.6,1.6s-.3,1.6-1,2.2c-.7.6-1.6.8-2.8.8s-.8,0-1.3-.2c-.5,0-.9-.2-1.2-.4v-2.2c.4.3.9.5,1.3.7.5.2.9.2,1.3.2s.9,0,1.1-.2c.2-.2.4-.4.4-.7s-.1-.6-.4-.8c-.2-.2-.7-.5-1.4-.7-.8-.3-1.4-.7-1.8-1.2-.3-.4-.5-1-.5-1.7s.3-1.6,1-2.1c.7-.6,1.6-.8,2.7-.8s.7,0,1.1.1c.4,0,.8.2,1,.3v2.2c-.3-.2-.6-.4-1-.5-.4-.2-.8-.2-1.2-.2s-.8,0-1,.2c-.2.2-.3.4-.3.7ZM82.9,22c0-1.6.5-2.8,1.3-3.8.9-.9,2.1-1.4,3.7-1.4s2.7.4,3.5,1.3c.8.9,1.3,2.1,1.3,3.6s-.5,2.8-1.3,3.7c-.9.9-2.1,1.4-3.6,1.4s-2.7-.4-3.5-1.3c-.8-.9-1.3-2.1-1.3-3.6ZM85.2,21.9c0,1,.2,1.8.7,2.3.5.5,1.1.8,1.9.8s1.4-.2,1.9-.8c.4-.5.6-1.3.6-2.3s-.2-1.8-.6-2.3c-.4-.5-1.1-.8-1.9-.8s-1.4.3-1.9.8c-.5.6-.7,1.4-.7,2.4ZM100.1,18.9h-3.4v7.7h-2.3v-7.7h-1.6v-1.9h1.6v-1.3c0-1,.3-1.8,1-2.5.6-.6,1.5-1,2.5-1s.5,0,.7,0,.4,0,.6.1v1.9c0,0-.2,0-.4-.2-.2,0-.4,0-.6,0-.5,0-.8.2-1.1.4-.2.3-.4.7-.4,1.3v1.1h3.4v-2.2l2.3-.7v2.8h2.3v1.9h-2.3v4.5c0,.6.1,1,.3,1.2.2.2.6.4,1,.4s.3,0,.5,0c.2,0,.3-.1.5-.2v1.9c-.2,0-.4.2-.7.2-.3,0-.6,0-1,0-1,0-1.7-.2-2.1-.7-.5-.5-.7-1.3-.7-2.3v-4.9Z"/>
        <path class="cls-1" d="M11.1,8.9H.5v10.5h10.5v-10.5Z"/>
        <path class="cls-1" d="M22.8,8.9h-10.5v10.5h10.5v-10.5Z"/>
        <path class="cls-1" d="M11.1,20.5H.5v10.5h10.5v-10.5Z"/>
        <path class="cls-1" d="M22.8,20.5h-10.5v10.5h10.5v-10.5Z"/>
      </g>
  </g>
</svg>