<svg width="57" height="35" viewBox="0 0 57 35" fill="none" xmlns="http://www.w3.org/2000/svg">
<g clipPath="url(#clip0_592_65577)">
<path d="M27.8762 0.660156C21.5644 0.660156 16.8984 4.64137 16.8984 8.90695C16.8984 11.1029 18.1608 12.9672 19.7268 14.2468L19.8546 14.1678C18.6082 13.1409 17.4737 11.5453 17.4737 9.34931C17.8093 4.68877 23.6257 2.06622 28.755 2.06622C32.4142 2.06622 38.9817 2.90354 38.9817 8.93855C38.9817 12.0982 35.5781 16.19 28.4194 16.19C24.7762 16.19 21.9319 14.2468 21.9319 11.4663C21.9319 9.06494 23.8334 7.34291 26.6617 7.34291C27.4447 7.34291 28.1798 7.53249 28.739 7.67468C27.5566 7.4535 25.7349 7.76947 24.7762 8.51199V12.588H28.2597V7.94325C28.9148 8.05384 29.4421 8.30661 29.7937 8.52779V12.588H30.7045C29.9854 13.3937 28.6591 13.8677 27.4927 13.6939V13.8677C30.8163 14.1204 32.2385 12.5722 32.2385 10.8028C32.2385 8.73317 30.273 7.53249 28.2756 7.27971V4.19901H24.7922V7.29551C22.5231 7.75367 20.302 9.08074 20.302 11.2767C20.302 14.6734 25.0958 16.7746 29.2504 16.7746C35.5941 16.7746 40.4837 13.7413 40.4837 9.4915C40.4837 4.3412 33.4209 0.660156 27.8762 0.660156ZM32.7179 10.9134C32.7179 9.41251 31.6792 8.21182 29.7937 7.62728V4.19901H33.2931V12.5722H32.1905C32.574 12.0351 32.7179 11.4347 32.7179 10.9134Z" fill="#777777"/>
<path d="M12.6452 21.7981V33.8207L13.588 33.9471V34.658H8.90612V33.9471L9.91281 33.8207V28.3544H3.93658V33.8207L4.86338 33.9471V34.658H0.277344V33.9471L1.18816 33.8207V21.7981L0.277344 21.6717V20.9766H4.86338V21.6717L3.93658 21.7981V26.9326H9.91281V21.7981L8.90612 21.6717V20.9766H13.588V21.6717" fill="#777777"/>
<path d="M19.1649 21.8623C19.1649 22.7786 18.5417 23.4579 17.6788 23.4579C16.8 23.4579 16.1928 22.8418 16.1928 21.9255C16.1928 21.0566 16.8 20.3772 17.6788 20.3772C18.5417 20.3614 19.1649 21.0408 19.1649 21.8623ZM18.8453 33.9007L19.7242 34.0271V34.6432H15.4258V34.0271L16.3046 33.9007V25.6697L15.4258 25.5433V24.9272H18.8453V33.9007Z" fill="#777777"/>
<path d="M21.5938 34.0267L22.4566 33.9003V21.3247L21.5938 21.1983V20.5664H25.0133V33.9003L25.8922 34.0267V34.6586H21.5938" fill="#777777"/>
<path d="M31.0846 24.927H33.4016V25.8433H31.0846V31.6256C31.0846 33.1264 31.4042 33.6004 32.7624 33.6004C33.2738 33.6004 33.7052 33.6004 34.1207 33.5056V34.1691C32.8743 34.6115 31.8357 34.7853 30.9568 34.7853C28.9914 34.7853 28.528 33.9005 28.528 32.1943V25.8433H26.7383V24.927H28.6079V22.889L31.1006 22.1465" fill="#777777"/>
<path d="M42.0979 29.8243C42.0979 26.7436 41.1711 25.4007 39.6851 25.4007C38.231 25.4007 37.3202 26.6804 37.3202 29.8243C37.3202 32.905 38.2469 34.1847 39.6851 34.1847C41.2351 34.2005 42.0979 32.9682 42.0979 29.8243ZM44.9103 29.8875C44.9103 32.9208 42.849 34.943 39.6212 34.943C36.4892 34.943 34.5078 33.6159 34.5078 29.8875C34.5078 26.7594 36.5691 24.6582 39.7969 24.6582C42.9768 24.6582 44.9103 26.5382 44.9103 29.8875Z" fill="#777777"/>
<path d="M56.8257 34.0258V34.642H52.5273V34.0258L53.3902 33.8994V28.37C53.3902 26.8375 52.8309 26.1424 51.6485 26.1424C51.1052 26.1424 50.2423 26.5216 49.6191 26.9481V33.8836L50.498 34.01V34.6262H46.1836V34.01L47.0625 33.8836V25.7158L46.1836 25.5894V24.9259H49.6191V26.2688C50.6897 25.4157 51.7124 24.7363 53.1665 24.7363C55.1 24.7363 55.9629 25.858 55.9629 28.0698V33.9152" fill="#777777"/>
<path d="M39.7024 15.4319H39.3828V15.3213H40.1498V15.4319H39.8622V16.5536H39.7024M41.0446 16.3324L41.4441 15.3213H41.6359V16.5536H41.4921V15.6215L41.1245 16.5536H40.9807L40.5972 15.6215V16.5536H40.4534V15.3213H40.6611L41.0446 16.3324Z" fill="#777777"/>
</g>
<defs>
<clipPath id="clip0_592_65577">
<rect width="56.5664" height="34.2827" fill="white" transform="translate(0.277344 0.660156)"/>
</clipPath>
</defs>
</svg>
