<svg width="256" height="17" viewBox="0 0 256 17" fill="none" xmlns="http://www.w3.org/2000/svg">
<g clipPath="url(#clip0_592_65623)">
<mask id="mask0_592_65623" style="mask-type:luminance" maskUnits="userSpaceOnUse" x="-40" y="-815" width="654" height="857">
<path d="M-39.8477 41.9023H613.154V-814.385H-39.8477V41.9023Z" fill="white"/>
</mask>
<g mask="url(#mask0_592_65623)">
<path d="M5.62038 0.669003H12.9315V1.18081H12.5358C11.7615 1.18081 11.2548 1.24205 11.0156 1.36453C10.7752 1.49029 10.6154 1.71995 10.5406 2.05459C10.4623 2.39361 10.4227 3.19521 10.4227 4.45941V9.65838C10.4227 10.9499 10.3716 11.9265 10.2673 12.6013C10.1608 13.2749 9.87169 13.9322 9.38988 14.573C8.91033 15.2095 8.26866 15.7049 7.46942 16.0505C6.6679 16.3939 5.73828 16.5645 4.67715 16.5645C3.48565 16.5645 2.56737 16.3512 1.9257 15.9291C1.2829 15.5037 0.960938 14.9951 0.960938 14.4112C0.960938 14.0579 1.07544 13.7605 1.30558 13.5177C1.53685 13.2782 1.81914 13.1601 2.15584 13.1601C2.49935 13.1601 2.7873 13.2662 3.01631 13.4816C3.24871 13.697 3.36321 13.9628 3.36321 14.2777C3.36321 14.4647 3.3156 14.6561 3.2215 14.8606C3.13648 15.0389 3.0934 15.1712 3.0934 15.2598C3.0934 15.4982 3.23851 15.6863 3.53213 15.8197C3.82802 15.9509 4.1908 16.0209 4.625 16.0209C5.50701 16.0209 6.24844 15.7497 6.85269 15.2084C7.45581 14.666 7.81859 14.0262 7.9433 13.288C8.06573 12.5531 8.12922 11.336 8.12922 9.64088V4.45285C8.12922 3.24224 8.09067 2.4625 8.01812 2.11036C7.9433 1.75932 7.78798 1.51654 7.54991 1.38203C7.3141 1.24752 6.79374 1.18081 5.99449 1.18081H5.62038V0.669003Z" fill="#777777"/>
<path d="M19.4027 8.15865H20.5342C21.4445 8.15865 22.1791 8.07444 22.7392 7.89509C23.2981 7.72231 23.7663 7.34939 24.1381 6.78728C24.5122 6.22298 24.6982 5.52964 24.6982 4.70507C24.6982 3.44415 24.3773 2.51897 23.7357 1.92842C23.0951 1.33788 22.0556 1.04261 20.6158 1.04261C20.0875 1.04261 19.6828 1.05901 19.4027 1.09073V8.15865ZM19.4027 8.70654V11.9195C19.4027 13.1247 19.4333 13.911 19.4923 14.2817C19.5512 14.6524 19.7077 14.9313 19.965 15.1096C20.2213 15.2922 20.7065 15.3819 21.4173 15.3819H21.9433V15.8926H14.6719V15.3819H15.0936C15.7727 15.3819 16.2432 15.2966 16.5039 15.1369C16.7647 14.9696 16.9324 14.7115 17.0027 14.3615C17.0719 14.0171 17.107 13.2078 17.107 11.9327V4.4601C17.107 3.24512 17.0719 2.46538 17.0027 2.11215C16.9324 1.75892 16.776 1.51723 16.5334 1.38162C16.2919 1.24711 15.767 1.1804 14.9666 1.1804H14.6719V0.668599L16.6581 0.590953C18.2452 0.528618 19.4832 0.49909 20.372 0.49909C22.0068 0.49909 23.2675 0.622667 24.1495 0.867633C25.0349 1.11697 25.7582 1.55223 26.3239 2.18433C26.8896 2.80986 27.1719 3.60491 27.1719 4.5629C27.1719 5.39513 26.9769 6.12675 26.5926 6.76322C26.2082 7.3997 25.6573 7.88307 24.9385 8.21114C24.2175 8.54032 22.9523 8.70654 21.1407 8.70654H19.4027Z" fill="#777777"/>
<path d="M40.3423 13.2647L46.0821 0.667505H50.9535V1.17931H50.3708C49.5908 1.17931 49.0807 1.24055 48.8403 1.36303C48.5989 1.48989 48.4402 1.71845 48.3585 2.05309C48.2758 2.39211 48.2361 3.19481 48.2361 4.45901V11.9316C48.2361 13.1301 48.2667 13.9143 48.3291 14.2861C48.3903 14.6546 48.5479 14.9302 48.7995 15.1096C49.0523 15.2911 49.5387 15.3808 50.254 15.3808H50.9535V15.8926H43.3624V15.3808H43.9247C44.597 15.3808 45.0629 15.2955 45.3259 15.1358C45.5844 14.9685 45.7545 14.7115 45.8281 14.3637C45.903 14.016 45.9392 13.2067 45.9392 11.9316V2.24119L39.7221 15.8926H39.1564L32.8781 2.24119V11.1617C32.8781 12.3821 32.9155 13.2122 32.9937 13.6551C33.0719 14.0958 33.3111 14.4818 33.7147 14.8154C34.1183 15.1478 34.6886 15.3359 35.4187 15.3808V15.8926H29.7344V15.3808C30.4123 15.3458 30.9656 15.1664 31.3907 14.8493C31.8181 14.53 32.0777 14.1374 32.1684 13.6769C32.2648 13.21 32.3124 12.3504 32.3124 11.0906V4.45901C32.3124 3.2473 32.275 2.46429 32.2013 2.11105C32.1264 1.75782 31.97 1.51614 31.7308 1.38053C31.495 1.24711 30.9735 1.17931 30.1674 1.17931H29.7344V0.667505H34.5491L40.3423 13.2647Z" fill="#777777"/>
<path d="M53.9183 9.99811C53.9183 11.8813 54.3037 13.2931 55.0814 14.2402C55.8546 15.1818 57.0166 15.6531 58.5664 15.6531C59.9268 15.6531 61.0015 15.1818 61.7894 14.2402C62.5785 13.2931 62.9753 11.8878 62.9753 10.0156C62.9753 8.19586 62.5864 6.79824 61.8087 5.82932C61.0299 4.86148 59.903 4.37483 58.4247 4.37483C56.9679 4.37483 55.8546 4.84836 55.0814 5.7976C54.3037 6.74247 53.9183 8.14118 53.9183 9.99811ZM51.8516 9.93687C51.8516 8.13134 52.4774 6.68013 53.7289 5.58544C54.9805 4.49294 56.5405 3.94614 58.4099 3.94614C60.2975 3.94614 61.8745 4.48638 63.1431 5.56904C64.4071 6.6517 65.0408 8.12806 65.0408 9.99811C65.0408 11.8113 64.4332 13.2778 63.2235 14.3998C62.0094 15.5252 60.4143 16.084 58.4383 16.084C56.5133 16.084 54.934 15.5252 53.7029 14.3998C52.4683 13.2778 51.8516 11.7883 51.8516 9.93687Z" fill="#777777"/>
<path d="M240.223 9.99909C240.223 11.8823 240.612 13.2941 241.387 14.2412C242.16 15.1827 243.322 15.6541 244.871 15.6541C246.23 15.6541 247.306 15.1827 248.095 14.2412C248.885 13.2941 249.28 11.8888 249.28 10.0166C249.28 8.19684 248.893 6.79922 248.111 5.83029C247.338 4.86246 246.207 4.3758 244.729 4.3758C243.274 4.3758 242.16 4.84933 241.387 5.79858C240.612 6.74345 240.223 8.14216 240.223 9.99909ZM238.156 9.93785C238.156 8.13232 238.784 6.68111 240.034 5.58642C241.285 4.49391 242.85 3.94711 244.719 3.94711C246.602 3.94711 248.184 4.48735 249.449 5.57001C250.715 6.65268 251.344 8.12903 251.344 9.99909C251.344 11.8123 250.738 13.2788 249.525 14.4008C248.314 15.5261 246.721 16.085 244.744 16.085C242.819 16.085 241.242 15.5261 240.01 14.4008C238.774 13.2788 238.156 11.7893 238.156 9.93785Z" fill="#777777"/>
<path d="M70.3039 9.83322C70.7449 9.8201 71.1984 9.80479 71.6723 9.78182C72.1428 9.75995 72.5509 9.69652 72.8989 9.59044C73.247 9.48436 73.5281 9.33454 73.7424 9.13769C73.9578 8.93866 74.1267 8.67401 74.248 8.35468C74.3716 8.03097 74.4351 7.634 74.4351 7.16047C74.4351 6.33589 74.2242 5.67645 73.8036 5.18215C73.3841 4.68675 72.4659 4.4385 71.0544 4.4385C70.8368 4.4385 70.5839 4.44944 70.3039 4.4724V9.83322ZM79.4221 15.8721H76.1741C75.6016 15.4773 74.7196 14.4624 73.5349 12.8144C73.154 12.2883 72.7595 11.7853 72.3502 11.3041C71.9387 10.8218 71.6575 10.5255 71.5045 10.4205C71.348 10.3133 71.1111 10.2619 70.7846 10.2619H70.3039V12.8384C70.3039 13.7538 70.3266 14.3552 70.3697 14.6352C70.415 14.9185 70.5363 15.1306 70.7302 15.2673C70.9252 15.4051 71.2982 15.4718 71.8469 15.4718H72.4341V15.8721H66.6172V15.4718H67.0106C67.5321 15.4718 67.8914 15.4106 68.0932 15.2837C68.2939 15.1558 68.4209 14.9589 68.473 14.6888C68.5286 14.422 68.5581 13.8008 68.5581 12.822V7.08063C68.5581 6.1478 68.5286 5.54632 68.473 5.2751C68.4197 5.00498 68.2973 4.81907 68.1102 4.71518C67.9232 4.61238 67.5151 4.56208 66.8915 4.56208H66.6807V4.16073L68.4129 4.08089C69.5704 4.03387 70.4865 4.00872 71.1621 4.00872C72.3196 4.00872 73.2583 4.11152 73.9816 4.31711C74.7015 4.52818 75.2887 4.86719 75.7365 5.33963C76.1809 5.81206 76.4031 6.37745 76.4031 7.0347C76.4031 7.80241 76.1129 8.45529 75.5347 8.99881C74.9543 9.53904 74.1052 9.87806 72.9794 10.0104C73.4884 10.2411 74.3024 11.0909 75.4259 12.5552C76.3419 13.7417 77.0561 14.5149 77.5765 14.8878C78.098 15.2531 78.7125 15.4499 79.4221 15.4718V15.8721Z" fill="#777777"/>
<path d="M87.8196 10.8717H93.0652V11.2697C92.487 11.2697 92.0925 11.331 91.8896 11.4425C91.681 11.5541 91.5438 11.7411 91.478 12.0046C91.4134 12.2682 91.3805 12.9047 91.3805 13.9151V15.1651C91.24 15.1422 91.1073 15.1301 90.9962 15.1301C90.5371 15.1301 89.9351 15.2668 89.1914 15.5348C88.1779 15.9022 87.238 16.0859 86.3753 16.0859C84.6396 16.0859 83.1965 15.5326 82.0469 14.4291C80.8974 13.3279 80.3203 11.9335 80.3203 10.2396C80.3203 8.56636 80.8735 7.09656 81.9721 5.83783C83.074 4.57691 84.5671 3.94809 86.4558 3.94809C88.0815 3.94809 89.4249 4.52004 90.4906 5.66832C90.6947 5.2615 90.8171 4.8186 90.8704 4.34725H91.2853V8.2678H90.8704C90.6992 7.07031 90.2253 6.12326 89.4533 5.42226C88.6812 4.72783 87.7437 4.37569 86.6372 4.37569C85.4978 4.37569 84.5059 4.78579 83.659 5.60161C82.8121 6.41525 82.3904 7.86427 82.3904 9.94757C82.3904 12.0221 82.7963 13.4897 83.608 14.3581C84.4231 15.222 85.4298 15.654 86.6372 15.654C87.2562 15.654 87.8185 15.5326 88.323 15.2865C88.8297 15.0437 89.1755 14.7463 89.3558 14.3941C89.5417 14.0409 89.6347 13.5969 89.6347 13.06C89.6347 12.4333 89.5882 12.0123 89.5009 11.8056C89.4159 11.5945 89.2809 11.4535 89.1007 11.3802C88.9216 11.3091 88.5894 11.2697 88.1099 11.2697H87.8196V10.8717Z" fill="#777777"/>
<path d="M101.688 11.1172L99.5725 6.16541L97.4537 11.1172H101.688ZM101.872 11.5481H97.2689L96.9503 12.2907C96.4855 13.3689 96.2531 14.071 96.2531 14.398C96.2531 14.7523 96.3755 15.017 96.6238 15.1996C96.8732 15.3823 97.1929 15.4708 97.5863 15.4708V15.8711H93.9336V15.4708C94.4721 15.3877 94.8723 15.2073 95.1398 14.9219C95.4028 14.6353 95.7214 14.036 96.0921 13.1185C96.1318 13.0321 96.2781 12.6986 96.5331 12.1146L100.076 4.00774H100.431L104.471 13.2979L105.023 14.5216C105.151 14.7972 105.32 15.0148 105.53 15.1701C105.743 15.3341 106.061 15.4315 106.483 15.4708V15.8711H101.719V15.4708C102.301 15.4708 102.696 15.4282 102.901 15.3462C103.106 15.262 103.209 15.0957 103.209 14.8497C103.209 14.7239 103.072 14.3455 102.797 13.7178L101.872 11.5481Z" fill="#777777"/>
<path d="M118.922 16.1445L110.313 5.16043V13.2848C110.313 13.9595 110.347 14.4046 110.414 14.6179C110.483 14.8278 110.675 15.0258 110.996 15.2029C111.318 15.3823 111.8 15.472 112.443 15.472V15.8711H107.93V15.472C108.503 15.4315 108.942 15.3309 109.245 15.1647C109.547 15.0017 109.724 14.8246 109.782 14.6343C109.84 14.444 109.866 13.9945 109.866 13.2881V7.08079C109.866 6.18295 109.823 5.58037 109.736 5.27417C109.649 4.97343 109.512 4.77549 109.323 4.68909C109.133 4.6027 108.71 4.56114 108.058 4.56114V4.15979H111.678L118.861 13.3241V6.31965C118.861 5.80347 118.806 5.44039 118.695 5.23261C118.586 5.02483 118.358 4.86297 118.021 4.74049C117.679 4.6191 117.271 4.56114 116.794 4.56114V4.15979H121.18V4.56114C120.671 4.59942 120.272 4.69565 119.982 4.84438C119.691 4.99202 119.501 5.17137 119.425 5.38243C119.345 5.59459 119.304 5.9511 119.304 6.45197V16.1445H118.922Z" fill="#777777"/>
<path d="M141.862 10.2218H142.392V15.5695H141.862C141.723 14.9615 141.47 14.4256 141.104 13.9586C139.723 15.4678 137.959 16.2158 135.813 16.2158C133.545 16.2158 131.691 15.5214 130.252 14.1303C128.814 12.7404 128.094 10.902 128.094 8.61422C128.094 7.11162 128.425 5.69541 129.088 4.36887C129.751 3.04015 130.68 2.05591 131.869 1.41287C133.057 0.770932 134.36 0.44832 135.778 0.44832C136.949 0.44832 138.016 0.681257 138.968 1.14713C139.92 1.61082 140.632 2.1259 141.104 2.69129C141.443 2.0581 141.653 1.40085 141.718 0.722815H142.25L142.392 6.47733H141.862C141.514 4.43558 140.807 3.00734 139.734 2.20245C138.668 1.39756 137.46 0.99512 136.115 0.99512C134.472 0.99512 133.165 1.64034 132.194 2.93735C131.224 4.23108 130.744 6.08363 130.744 8.49392C130.744 10.7763 131.266 12.5271 132.326 13.7476C133.389 14.9615 134.707 15.5695 136.277 15.5695C137.119 15.5695 137.982 15.3737 138.861 14.9757C139.741 14.5787 140.438 13.9072 140.951 12.9635C141.467 12.0186 141.769 11.1054 141.862 10.2218Z" fill="#777777"/>
<path d="M155.176 9.9541H148.855V12.7854C148.855 13.7084 148.882 14.3143 148.926 14.5986C148.973 14.884 149.1 15.0962 149.29 15.2351C149.489 15.374 149.863 15.4407 150.413 15.4407H150.729V15.8398H145.23V15.4407H145.548C146.069 15.4407 146.429 15.3783 146.631 15.2515C146.835 15.1268 146.966 14.9289 147.022 14.6631C147.075 14.3952 147.106 13.7708 147.106 12.7909V7.05169C147.106 6.11775 147.075 5.51628 147.022 5.24506C146.966 4.97713 146.841 4.79122 146.658 4.68514C146.478 4.58344 146.074 4.52985 145.456 4.52985H145.23V4.13287H150.729V4.52985H150.503C149.904 4.52985 149.511 4.57797 149.325 4.67311C149.138 4.76935 149.01 4.94542 148.95 5.20241C148.883 5.46269 148.855 6.07839 148.855 7.05169V9.3723H155.176V7.05169C155.176 6.11775 155.151 5.51628 155.099 5.24506C155.044 4.97713 154.926 4.79122 154.745 4.68514C154.566 4.58344 154.171 4.52985 153.56 4.52985H153.24V4.13287H158.736V4.52985H158.561C157.959 4.52985 157.571 4.57797 157.391 4.67311C157.206 4.76935 157.082 4.94542 157.021 5.20241C156.956 5.46269 156.926 6.07839 156.926 7.05169V12.7909C156.926 13.7106 156.949 14.3143 156.995 14.6008C157.037 14.8862 157.158 15.0962 157.352 15.2351C157.552 15.374 157.919 15.4407 158.462 15.4407H158.736V15.8398H153.24V15.4407H153.657C154.167 15.4407 154.521 15.3783 154.718 15.2515C154.917 15.1235 155.044 14.9267 155.099 14.6599C155.151 14.3919 155.176 13.7675 155.176 12.7854V9.9541Z" fill="#777777"/>
<path d="M167.694 11.0895L165.58 6.13658L163.46 11.0895H167.694ZM167.874 11.5193H163.278L162.956 12.264C162.493 13.339 162.262 14.04 162.262 14.3681C162.262 14.7191 162.382 14.9882 162.632 15.1675C162.881 15.3491 163.2 15.4398 163.595 15.4398V15.8379H159.938V15.4398C160.479 15.3589 160.881 15.1763 161.147 14.8919C161.409 14.6076 161.728 14.0028 162.103 13.0864C162.14 13.0011 162.284 12.6654 162.539 12.0858L166.082 3.97454H166.438L170.48 13.2647L171.031 14.4906C171.155 14.764 171.326 14.9849 171.538 15.1445C171.749 15.3009 172.066 15.3994 172.491 15.4398V15.8379H167.725V15.4398C168.305 15.4398 168.703 15.3972 168.907 15.3173C169.111 15.2309 169.217 15.0647 169.217 14.8219C169.217 14.694 169.08 14.3167 168.803 13.6868L167.874 11.5193Z" fill="#777777"/>
<path d="M174.039 15.719V11.9449H174.483C174.99 14.399 176.195 15.6238 178.091 15.6238C178.941 15.6238 179.607 15.3876 180.073 14.9217C180.541 14.4515 180.773 13.9287 180.773 13.348C180.773 12.763 180.57 12.2697 180.159 11.8728C179.751 11.4824 178.999 11.0635 177.907 10.6151C176.932 10.2127 176.2 9.85945 175.708 9.55653C175.215 9.25469 174.826 8.86428 174.548 8.37982C174.273 7.89426 174.135 7.38027 174.135 6.83347C174.135 5.99905 174.435 5.30571 175.038 4.74907C175.641 4.19352 176.401 3.91465 177.326 3.91465C177.843 3.91465 178.327 3.99558 178.782 4.15743C179.237 4.31601 179.703 4.65174 180.181 5.15698C180.459 4.84203 180.614 4.49973 180.651 4.13228H181.028V7.19545H180.651C180.422 6.31292 180.017 5.61411 179.437 5.10668C178.858 4.59925 178.185 4.34663 177.421 4.34663C176.694 4.34663 176.16 4.53254 175.819 4.90545C175.481 5.27837 175.31 5.68847 175.31 6.13356C175.31 6.67052 175.525 7.12436 175.952 7.49291C176.369 7.86911 177.129 8.2978 178.221 8.77023C179.265 9.22189 180.028 9.58605 180.503 9.85945C180.978 10.1329 181.36 10.5123 181.651 10.9957C181.933 11.4824 182.08 12.0379 182.08 12.6711C182.08 13.6717 181.735 14.4865 181.036 15.1131C180.345 15.7408 179.42 16.0547 178.261 16.0547C176.925 16.0547 175.812 15.5604 174.922 14.5783C174.725 14.8463 174.579 15.2268 174.483 15.719H174.039Z" fill="#777777"/>
<path d="M194.006 12.1907H194.419L194.155 15.8379H184.156V15.4409H184.408C185.003 15.4409 185.392 15.3633 185.564 15.2069C185.741 15.0516 185.848 14.8537 185.898 14.6174C185.943 14.379 185.967 13.7699 185.967 12.79V7.05083C185.967 6.15517 185.943 5.56901 185.892 5.28795C185.839 5.00471 185.722 4.80786 185.543 4.69741C185.356 4.58367 184.969 4.5279 184.378 4.5279V4.13202H193.019L193.308 7.0388H192.896C192.702 6.22735 192.472 5.64884 192.195 5.30982C191.921 4.96643 191.597 4.75099 191.215 4.66241C190.836 4.57274 190.227 4.5279 189.385 4.5279H187.717V9.43269H188.995C189.582 9.43269 189.992 9.38457 190.224 9.28833C190.46 9.18991 190.613 9.04227 190.686 8.84433C190.763 8.6453 190.797 8.25926 190.797 7.68621H191.209V11.6691H190.797C190.797 11.0206 190.743 10.5864 190.63 10.3622C190.517 10.1435 190.356 9.99808 190.138 9.93027C189.92 9.86685 189.555 9.83185 189.039 9.83185H187.717V12.5997C187.717 13.9842 187.806 14.8012 187.994 15.0428C188.18 15.2889 188.675 15.4103 189.486 15.4103H190.384C191.021 15.4103 191.546 15.3381 191.958 15.1959C192.363 15.0516 192.756 14.7366 193.127 14.2434C193.498 13.7524 193.794 13.0689 194.006 12.1907Z" fill="#777777"/>
<path d="M205.979 5.97694C207.601 5.06597 208.407 4.08173 208.407 3.02094C208.407 2.39103 208.231 1.88032 207.868 1.4899C207.506 1.10058 207.024 0.909201 206.433 0.909201C205.846 0.909201 205.377 1.09621 205.02 1.46803C204.666 1.83876 204.492 2.30354 204.492 2.85909C204.492 3.62023 204.989 4.66134 205.979 5.97694ZM204.767 7.39533C203.912 7.89511 203.253 8.48018 202.791 9.14837C202.321 9.81984 202.091 10.4683 202.091 11.0917C202.091 12.0541 202.493 12.9672 203.3 13.8213C204.106 14.6809 205.017 15.1107 206.035 15.1107C207.171 15.1107 208.216 14.5704 209.175 13.4889C207.469 10.978 205.998 8.95043 204.767 7.39533ZM210 6.28642H215.224V6.83322C214.568 7.00273 213.993 7.30784 213.504 7.74528C213.012 8.18054 212.507 9.00402 211.986 10.2135C211.551 11.2131 211.148 11.9414 210.782 12.4117C211.651 13.6124 212.334 14.3714 212.829 14.6951C213.325 15.0177 213.851 15.1774 214.411 15.1774C215.175 15.1774 215.766 14.8241 216.178 14.121H216.741C216.573 14.7651 216.207 15.2835 215.653 15.6761C215.096 16.0698 214.451 16.2666 213.723 16.2666C212.135 16.2666 210.743 15.5033 209.539 13.97C208.11 15.5033 206.599 16.2666 205.004 16.2666C204.223 16.2666 203.482 16.0851 202.771 15.722C202.056 15.3589 201.478 14.8493 201.032 14.192C200.582 13.5381 200.359 12.778 200.359 11.9195C200.359 10.9353 200.637 10.1107 201.196 9.44145C201.752 8.77436 202.819 7.9301 204.4 6.91634C203.448 5.6412 202.973 4.48855 202.973 3.45947C202.973 2.64474 203.297 1.92078 203.944 1.28212C204.596 0.645643 205.411 0.326313 206.393 0.326313C207.267 0.326313 208.056 0.566905 208.767 1.04262C209.469 1.52052 209.822 2.14606 209.822 2.91705C209.822 4.12329 208.655 5.28906 206.324 6.42094C207.773 8.30411 209.134 10.126 210.42 11.8846C210.879 11.2623 211.245 10.6149 211.515 9.94779C211.777 9.28288 211.917 8.76342 211.917 8.38723C211.917 7.49157 211.278 6.9732 210 6.83322V6.28642Z" fill="#777777"/>
<path d="M234.654 10.172H235.183V15.5186H234.654C234.514 14.9128 234.258 14.3758 233.895 13.9088C232.514 15.4147 230.746 16.166 228.607 16.166C226.338 16.166 224.483 15.4716 223.042 14.0816C221.603 12.6895 220.883 10.85 220.883 8.56223C220.883 7.05853 221.216 5.64232 221.88 4.31797C222.541 2.99034 223.472 2.00611 224.66 1.36198C225.846 0.721128 227.149 0.398516 228.569 0.398516C229.743 0.398516 230.807 0.628172 231.759 1.09623C232.711 1.55882 233.424 2.0761 233.895 2.64039C234.235 2.00611 234.442 1.35104 234.514 0.669728H235.04L235.183 6.42534H234.654C234.306 4.38359 233.598 2.95863 232.526 2.15265C231.458 1.34448 230.25 0.942035 228.907 0.942035C227.261 0.942035 225.958 1.58945 224.986 2.88645C224.016 4.17799 223.536 6.03164 223.536 8.44412C223.536 10.7276 224.065 12.4784 225.121 13.6967C226.177 14.9095 227.493 15.5186 229.069 15.5186C229.911 15.5186 230.773 15.3207 231.654 14.9226C232.533 14.5289 233.234 13.8596 233.742 12.9147C234.258 11.9688 234.562 11.0545 234.654 10.172Z" fill="#777777"/>
<path d="M252.367 14.8985C252.367 14.5464 252.498 14.2446 252.762 13.9941C253.02 13.7415 253.333 13.6179 253.699 13.6179C254.069 13.6179 254.386 13.7415 254.648 13.9941C254.907 14.2446 255.039 14.5464 255.039 14.8985C255.039 15.2594 254.907 15.5613 254.642 15.8161C254.376 16.0676 254.06 16.1934 253.699 16.1934C253.326 16.1934 253.012 16.0621 252.754 15.8029C252.498 15.5416 252.367 15.2408 252.367 14.8985Z" fill="#777777"/>
</g>
</g>
<defs>
<clipPath id="clip0_592_65623">
<rect width="254.075" height="16.2379" fill="white" transform="translate(0.960938 0.632812)"/>
</clipPath>
</defs>
</svg>
