<?xml version="1.0" encoding="UTF-8"?>
<svg xmlns="http://www.w3.org/2000/svg" version="1.1" viewBox="0 0 85 40">
  <defs>
    <style>
      .cls-1 {
        fill: #777;
      }
    </style>
  </defs>
  <!-- Generator: Adobe Illustrator 28.6.0, SVG Export Plug-In . SVG Version: 1.2.0 Build 709)  -->
  <g>
      <path class="cls-1" d="M79.2,29v-6.6h-4.7v6.6h-5.6V10.8h5.6v6.2h4.7v-6.2h5.6v18.2h-5.6ZM61.7,16.2v12.8h-5.6v-12.8h-3.8v-5.4h13.2v5.4h-3.8ZM43.3,10.8h5.6v18.2h-5.6V10.8ZM34.7,19.9c0,2.4-1.9,4.3-4.3,4.3s-4.3-1.9-4.3-4.3,1.9-4.3,4.3-4.3,4.3,1.9,4.3,4.3ZM39.9,19.9c0-5.2-4.2-9.5-9.5-9.5s-9.5,4.2-9.5,9.5,4.3,9.5,9.5,9.5,9.5-4.3,9.5-9.5ZM14.6,10.8l-3.7,10.2-3.7-10.2H.9l7.8,18.2h4.2l7.9-18.2h-6.2Z"/>
  </g>
</svg>