<?xml version="1.0" encoding="UTF-8"?>
<svg xmlns="http://www.w3.org/2000/svg" version="1.1" viewBox="0 0 100 40">
  <defs>
    <style>
      .cls-1 {
        fill: #777;
      }
    </style>
  </defs>
  <!-- Generator: Adobe Illustrator 28.6.0, SVG Export Plug-In . SVG Version: 1.2.0 Build 709)  -->
  <g>
      <g>
        <path class="cls-1" d="M94.8,8.3h3.6v7.2h-3.6v-7.2ZM88.6,11.9h-.2c0,0,1.2,1.1,1.2,1.2,0,0,.1,0,0,.3,0,.2-.1.4-.1.4,0,0,1.1-.2,1.2-.3.1,0,.2,0,.2.1s0,1.3,0,1.3h.3s0-1.2,0-1.3c0-.1,0-.1.2-.1s1.2.3,1.2.3c0,0,0-.3-.1-.4,0-.2,0-.2,0-.3,0,0,1.2-1.1,1.2-1.1h-.2c-.1-.1,0-.2,0-.3s.2-.8.2-.8c0,0-.6.1-.6.1s-.1,0-.1,0-.1-.3-.1-.3c0,0-.6.7-.7.8-.1.1-.3,0-.2-.1,0-.1.3-1.6.3-1.6,0,0-.3.2-.5.3-.1,0-.2,0-.2,0,0-.1-.5-.9-.5-1,0,0-.4.8-.5,1,0,.1-.1.1-.2,0-.1,0-.5-.3-.5-.3,0,0,.3,1.5.3,1.6s0,.2-.2.1l-.7-.8s0,.2-.1.3c0,0,0,.1-.1,0-.1,0-.7-.1-.7-.1,0,0,.2.7.3.8,0,0,0,.2-.1.3ZM83.9,8.3h3.6v7.2h-3.6v-7.2Z"/>
        <path class="cls-1" d="M99.2,29.9c-.3.6-.8.8-1.2.8s-1.7,0-1.7-3.3v-7c0-2.1-1.7-3.9-5.9-3.9s-4.7,2.3-4.7,2.8c0,.6.3,1.3,1.5,1.3s1.3-1.2,1.5-1.6c.1-.5.2-1.9,2.1-1.9s2.6,1.4,2.6,3.4v1.1h0c-.1.8-.5,1.1-1.1,1.4-.8.4-3.3.8-3.5.8-1,.2-3.7.9-3.6,3.7,0,2.8,2.8,3.7,4.8,3.7,1.9,0,3-.8,3.5-1.2q.3-.2.5,0c.3.3,1.2,1.2,3.3,1.2s2.5-1,2.6-1.4c0-.2-.4-.4-.6,0ZM90.5,30.6c-1.9,0-2.4-1.6-2.4-2.4s.4-2.4,2.4-3.5c0,0,.9-.6,2.6-1.2h.1s0,0,0,.1h0v3c0,2.3-1.1,3.9-2.8,3.9ZM84.1,30.6c-.3,0-2,.1-2-5.1V8.9c0-.2,0-.8-.6-.8s-4.8.2-5,.3c-.3,0-.5.3,0,.3.5,0,2.7.2,2.7,3.9v4.9h0c0,.3,0,.3,0,.4h0c0,.1-.1,0-.3,0-.3-.3-1.9-1.2-3.9-1.2-3.3,0-7.3,2.4-7.3,7.2s3.7,7.7,7.5,7.7,3.2-.8,3.7-1.1c.6-.3.5-.3.6.2,0,.3,0,1,1,1,1-.1,3.5-.4,4-.5.5-.2.3-.5,0-.6ZM75.6,30.8c-3,0-4.6-3.6-4.6-7.1s2.1-6.4,4.4-6.2c3,.2,3.7,2.6,3.8,6.8v.9c0,4.1-1.8,5.6-3.6,5.6ZM67.5,29.9c-.3.6-.8.8-1.2.8s-1.7,0-1.7-3.3v-7c0-2.1-1.7-3.9-5.9-3.9s-4.7,2.3-4.7,2.8c0,.6.3,1.3,1.5,1.3s1.3-1.2,1.5-1.6c.1-.5.2-1.9,2.1-1.9s2.6,1.4,2.6,3.5h0v.7c0,1-.3,1.4-1.2,1.8-.8.4-3.3.8-3.5.8-1,.2-3.7.9-3.6,3.7,0,2.8,2.8,3.7,4.8,3.7,1.9,0,3-.8,3.5-1.2q.3-.2.5,0c.3.3,1.2,1.2,3.3,1.2s2.5-1,2.6-1.4c.1-.3-.3-.5-.5-.1ZM58.9,30.6c-1.9,0-2.4-1.6-2.4-2.4s.4-2.4,2.4-3.5c0,0,.9-.6,2.6-1.2h.1v.3h0q0,0,0,0v2.9c0,2.2-1.1,3.9-2.7,3.9ZM52.3,30.6c-.6-.1-1.5-.8-1.5-3.8v-5.5c0-1.3.1-4.7-5-4.7s-4.2,1.4-4.4,1.5c-.2.2-.3.3-.4,0,0-.3-.2-.7-.3-1,0-.2-.2-.4-.7-.3-.5,0-3.5.6-4.1.7-.5.1-.3.3,0,.4.3,0,2,.2,2,3v5.9c0,3.5-.7,3.7-1.3,3.9-.8.2-.4.5,0,.5h6.3c.4,0,.6-.4-.2-.6-.8-.1-1.6-.6-1.6-3.3v-3.8c0-1.5-.3-5.9,3.7-5.9,2.8,0,3.1,2.3,3.1,3.8v5.9c0,2.4-.7,3.2-1.5,3.3-.8.1-.6.5-.2.5h6.4c.3.1.7-.2-.2-.4ZM35.5,29.9c-.3.6-.8.8-1.2.8s-1.7,0-1.7-3.3v-7c0-2.1-1.7-3.9-5.9-3.9s-4.7,2.3-4.7,2.8c0,.6.3,1.3,1.5,1.3s1.3-1.2,1.5-1.6c.1-.5.2-1.9,2.1-1.9s2.6,1.4,2.6,3.4v.8c0,.1,0,.3,0,.3h0c-.1.8-.5,1.1-1.1,1.4-.8.4-3.3.8-3.5.8-1,.2-3.7.9-3.6,3.7,0,2.8,2.8,3.7,4.8,3.7,1.9,0,3-.8,3.5-1.2q.3-.2.5,0c.3.3,1.2,1.2,3.3,1.2s2.5-1,2.6-1.4c.1-.2-.3-.4-.5,0ZM26.8,30.6c-1.9,0-2.4-1.6-2.4-2.4s.4-2.4,2.4-3.5c0,0,.9-.6,2.6-1.2h.1s0,0,0,.1h0v3.1c0,2.2-1.1,3.9-2.8,3.9ZM20.2,24.6c-.7,2.2-2,5.8-6.8,5.9-5,0-8-3.3-8.1-9.6-.2-6.7,2.7-11.8,7.2-12,5,0,6.8,5.9,6.9,6.8,0,.7,1,.6,1,0s-.4-6.3-.6-7c-.1-.7-.7-.4-.8-.1,0,.2,0-.2-.2.4-.3.6-1,.3-1.3.2-.8-.3-2.4-1.2-5-1.1-5.9.1-11.9,4.5-11.8,12.1.1,7.4,6.1,11.5,11.6,11.5,5,0,7.9-3.3,8.7-6.9.3-.9-.6-1.1-.9-.2Z"/>
      </g>
  </g>
</svg>