<?xml version="1.0" encoding="UTF-8"?>
<svg xmlns="http://www.w3.org/2000/svg" version="1.1" viewBox="0 0 125 40">
  <defs>
    <style>
      .cls-1 {
        fill: #777;
        fill-rule: evenodd;
      }
    </style>
  </defs>
  <!-- Generator: Adobe Illustrator 28.6.0, SVG Export Plug-In . SVG Version: 1.2.0 Build 709)  -->
  <g>
      <path class="cls-1" d="M110.5,18.8v2.2h3.5v-2.2c0-.9-.8-1.7-1.7-1.7s-1.8.8-1.8,1.7ZM119.7,15.7c-4.8-2.4-9.7-2.5-14.6-.4-4,1.7-5.9,6.4-4.2,10.4.9,2.1,2.4,3.5,4.5,4.3,4.8,1.8,9.6,1.7,14.2-.4,2-.9,3.5-2.4,4.2-4.5h-6.2c-.7,2.2-3.1,3.5-5.3,2.8-.2,0-.3-.1-.6-.2-.9-.4-1.4-1.3-1.4-2.2v-1.6h13.6c.4-3.4-1.3-6.5-4.3-8ZM71.6,18.8c0-.9-.8-1.7-1.7-1.7s-1.7.8-1.7,1.7v2.2h3.5v-2.2ZM81.7,23.7c.4-3.4-1.3-6.5-4.3-8-4.7-2.4-9.7-2.5-14.6-.4-4,1.7-5.9,6.4-4.2,10.4.9,2.1,2.4,3.5,4.5,4.3,4.8,1.8,9.6,1.7,14.2-.4,2-.9,3.4-2.4,4.2-4.5h-6.2c-.7,2.2-3,3.5-5.3,2.8-.2,0-.4-.1-.6-.2-.9-.4-1.4-1.3-1.4-2.2v-1.6h13.6ZM85.2,27v-14.1h-2.5v-3.5h14.1v17.6h2.5v3.5h-16.6v-3.5h2.5ZM47.4,14.2l5.1-2.6-1.6-3.1-5.1,2.6,1.6,3.1ZM54.5,27v-12.4h-13.6v3.5h2.5v8.9h-2.5v3.5h16.1v-3.5h-2.5ZM20.3,17.6l5.9-8.2h12.4v3.5h-2.5v14.1h2.5v3.5h-16.1v-3.5h2.5v-9.2l-9.2,12.6-9.2-12.6v9.2h2.5v3.5H.3v-3.5h2.5v-14.1H.3v-3.5h14.1l6,8.2Z"/>
  </g>
</svg>