<svg width="50" height="34" viewBox="0 0 50 34" fill="none" xmlns="http://www.w3.org/2000/svg">
<g clipPath="url(#clip0_592_65559)">
<path d="M14.9065 14.5023V22.4306H12.3827V12.4651L17.5931 12.4703C19.8061 12.4703 20.56 14.0309 20.56 15.4485V22.4306H18.0408V15.4615C18.0408 14.8677 17.7334 14.5023 16.992 14.5023L14.9065 14.5023ZM32.0679 14.3832C31.2053 14.3832 30.5376 14.8267 30.2588 15.4287C30.0936 15.7902 30.0368 16.0672 30.0173 16.5097H33.9001C33.8502 15.4287 33.36 14.3832 32.0679 14.3832ZM30.0173 18.2274C30.0173 19.5183 30.8198 20.4684 32.2526 20.4684C33.3673 20.4684 33.9213 20.1595 34.5659 19.5183L36.1247 21.0066C35.1266 21.992 34.0793 22.5903 32.234 22.5903C29.8181 22.5903 27.506 21.273 27.506 17.4337C27.506 14.1533 29.5247 12.2962 32.1772 12.2962C34.866 12.2962 36.4193 14.4704 36.4193 17.3183V18.2274H30.0173ZM25.3755 22.4181C23.3195 22.4181 22.4472 20.9869 22.4472 19.5733V9.74995H24.967V12.4651H26.8666V14.5023H24.967V19.4153C24.967 19.9942 25.2404 20.3156 25.8415 20.3156H26.8666V22.4181H25.3755ZM10.1371 11.0879H7.59602V8.6741H10.1371V11.0879ZM10.1435 22.5354C8.24057 22.3525 7.5933 21.1983 7.5933 19.8664L7.59605 12.4651H10.1435L10.1435 22.5354ZM40.4299 22.3224C38.5309 22.1393 37.8867 20.9869 37.8867 19.6568V8.33057H40.4299V22.3224ZM49.3207 9.96743C47.0159 -1.26949 25.2033 -1.98085 11.1437 6.57828V7.52322C25.1891 0.305107 45.1087 0.347629 46.9236 10.6973C47.5308 14.1196 45.6023 17.6876 42.1582 19.7385V22.4218C46.3037 20.9052 50.5551 15.9873 49.3207 9.96743ZM23.7636 29.6277C14.0603 30.5247 3.9487 29.1162 2.53387 21.5339C1.84134 17.7961 3.54412 13.8338 5.80305 11.3725V10.0564C1.73655 13.6224 -0.470437 18.1369 0.800115 23.4712C2.42179 30.3114 11.1 34.1878 24.3459 32.9005C29.5866 32.389 36.446 30.7039 41.2148 28.0865V24.3681C36.8877 26.9448 29.7273 29.0755 23.7636 29.6277Z" fill="#777777"/>
<path d="M43.3718 9.08313C43.3718 8.95981 43.2998 8.92063 43.1352 8.92063H42.9763V9.26962C42.9994 9.26962 43.1148 9.27387 43.1352 9.27387C43.2998 9.27387 43.3718 9.2189 43.3718 9.10348V9.08313ZM43.6196 9.94849H43.4313C43.4143 9.94849 43.3994 9.93784 43.3921 9.92358L43.1352 9.48802C43.1306 9.47922 43.1084 9.46858 43.0996 9.46858H42.9842V9.9005C42.9842 9.92358 42.9684 9.94849 42.938 9.94849H42.7676C42.7464 9.94849 42.7251 9.92358 42.7251 9.9005V8.80794C42.7251 8.74476 42.7497 8.71833 42.8032 8.71013C42.8633 8.70224 43.0267 8.69677 43.1148 8.69677C43.4277 8.69677 43.6169 8.78911 43.6169 9.08313V9.10347C43.6169 9.28541 43.5264 9.38139 43.3861 9.42847L43.6524 9.87892C43.6541 9.88803 43.6603 9.9005 43.6603 9.91112C43.6603 9.92874 43.6497 9.94849 43.6196 9.94849ZM43.1725 8.49963C42.709 8.49963 42.3342 8.88235 42.3342 9.34312C42.3342 9.8045 42.709 10.1811 43.1725 10.1811C43.6336 10.1811 44.0121 9.8045 44.0121 9.34312C44.0121 8.88235 43.6336 8.49963 43.1725 8.49963ZM43.1725 10.3549C42.6094 10.3549 42.1602 9.90049 42.1602 9.34312C42.1602 8.78667 42.6094 8.33105 43.1725 8.33105C43.7296 8.33105 44.1873 8.78667 44.1873 9.34312C44.1873 9.90049 43.7296 10.3549 43.1725 10.3549Z" fill="#777777"/>
</g>
<defs>
<clipPath id="clip0_592_65559">
<rect width="49.0964" height="32.3761" fill="white" transform="translate(0.441406 0.769531)"/>
</clipPath>
</defs>
</svg>
