<svg width="144" height="55" viewBox="0 0 144 55" xmlns="http://www.w3.org/2000/svg">
<path fill="#777" d="M24 43.5v-32h95.9v32H24zm32.9-10.7c-1.1-1.3-2-1.9-3.6-.9-1.4.9-3.1.5-4.3-.6 2.4-1 4.7-2.1 7.1-2.9 1.2-.5 1.2-1 .9-2-.9-2.6-3.2-4.2-6.2-4-3 0-5.5 1.9-6.2 4.6-.8 2.9.3 5.6 2.6 7.1 2.9 1.9 7.2 1.3 9.7-1.2h-.2zm10.5 2H71v-1.9V27c-.2-3.5-3.2-5.6-6.5-4.5-.8.2-1.7 1-2.3 1.5v-1.6h-3.4v12.4h3.4v-6.6c0-2.1 1.5-2.7 2.6-2.7s2.8.5 2.9 2.7V35v-.2zm37.4-12.5c-3.8 0-6.7 2.7-6.7 6.4s2.9 6.4 6.7 6.4 6.6-2.9 6.6-6.5-2.9-6.3-6.6-6.3zm-26 0c-3.8 0-6.7 2.8-6.7 6.3s2.9 6.3 6.6 6.4c3.7 0 6.7-2.8 6.8-6.3 0-3.6-2.8-6.4-6.6-6.5zm19.8.6c-4.1 0-4.2.5-4.9 2.4s-1.2 3.3-1.9 5.4c-.9-2.4-1.5-4.3-2.2-6.2-.9-2.3-2.3-1.2-4.6-1.7 1.5 3.8 3.1 7.5 4.7 11.3.5 1.1 3.9 1.2 4.3 0 1.6-3.8 3.1-7.3 4.7-11.4zm-62.3 8.8V18.9H33v16h9.7c1.3 0 1.5-.5 1.5-1.6s0-1.7-1.5-1.6h-6.3z"></path><path fill="#fff" d="M56.9 32.8c-2.6 2.6-6.8 3.1-9.7 1.2-2.3-1.5-3.4-4.3-2.6-7.1.7-2.7 3.2-4.5 6.2-4.6 3 0 5.3 1.5 6.2 4 .2.5.5 1.5.5 1.5s-.7.3-1.4.5c-2.4.9-4.7 1.9-7.1 2.9 1.2 1.1 2.9 1.5 4.3.6.5-.3 1.9-1.2 1.9-1.2s1.1 1.2 1.9 2.2zM47.8 29c1.9-.8 3.8-1.5 5.6-2.4-.9-1.5-2-1.9-3.4-1.5-1.5.5-2.2 1.5-2.2 3.9zM67.4 34.8V28c0-2.2-2.3-3.6-4.1-2.4-.7.5-1.3.5-1.4 1.9s-.2 7.2-.2 7.2h-3.2c0-4.1 2.9-13 3.5-10.8.8-.4 1.5-1.2 2.3-1.5 3.3-1.1 6.3 1.1 6.5 4.5v7.8h-3.6zM104.8 22.3c3.8 0 6.6 2.7 6.6 6.3s-2.9 6.5-6.6 6.5-6.7-2.8-6.7-6.4 2.9-6.4 6.7-6.4zm.1 9.7c1.8 0 3.1-1.4 3.1-3.3s-1.4-3.4-3.2-3.4-3.2 1.4-3.2 3.4 1.4 3.3 3.2 3.3zM78.8 22.3c3.8 0 6.6 2.8 6.6 6.5 0 3.6-3.1 6.4-6.8 6.3-3.7 0-6.6-2.9-6.6-6.4s2.9-6.4 6.7-6.3zm3.1 6.4c0-2-1.3-3.4-3.2-3.4s-3.2 1.5-3.2 3.4 1.4 3.3 3.3 3.3 3.1-1.3 3.1-3.3zM98.6 22.9s-3.1 7.6-4.7 11.4c0 .2-.3.7-.3.7H90s-.4-.6-.5-.8c-1.6-3.8-3.2-7.6-4.7-11.3h3.9s.2.5.6 1.6c.7 1.9 1.4 3.8 2.2 6.2.8-2.1 1.4-3.8 1.9-5.4.5-1.5.9-2.4.9-2.4h4.1zM36.3 31.7h7.8V35H33V19h3.3v12.8z"></path>
<path fill="#777" d="M47.8 29c0-2.2.7-3.4 2.2-3.9 1.5-.4 2.6 0 3.4 1.5-1.9.8-3.7 1.5-5.6 2.4zM104.9 32c-1.9 0-3.2-1.4-3.2-3.3s1.3-3.4 3.2-3.4 3.2 1.5 3.2 3.4-1.3 3.2-3.1 3.3zM81.9 28.7c0 2-1.2 3.3-3.1 3.3s-3.2-1.4-3.3-3.3c0-2 1.3-3.4 3.2-3.4s3.2 1.4 3.2 3.4z"></path>
</svg>