<?xml version="1.0" encoding="UTF-8"?>
<svg xmlns="http://www.w3.org/2000/svg" version="1.1" xmlns:xlink="http://www.w3.org/1999/xlink" viewBox="0 0 103 34">
  <defs>
    <style>
      .cls-1 {
        mask: url(#mask-1);
      }

      .cls-2 {
        fill: #777;
      }

      .cls-3 {
        fill: #fff;
      }

      .cls-4 {
        mask: url(#mask);
      }

      .cls-5 {
        mask: url(#mask-2);
      }
    </style>
    <mask id="mask" x="92.6" y="13.3" width="9.9" height="15.8" maskUnits="userSpaceOnUse">
      <g id="mask0_592_65538">
        <path class="cls-3" d="M92.6,13.3h9.9v15.8h-9.9v-15.8Z"/>
      </g>
    </mask>
    <mask id="mask-1" x="17.3" y="2.7" width="17.8" height="21.8" maskUnits="userSpaceOnUse">
      <g id="mask1_592_65538">
        <path class="cls-3" d="M17.3,2.7h17.8v21.8h-17.8V2.7Z"/>
      </g>
    </mask>
    <mask id="mask-2" x=".2" y="9.3" width="17.8" height="22.3" maskUnits="userSpaceOnUse">
      <g id="mask2_592_65538">
        <path class="cls-3" d="M.2,9.3h17.8v22.3H.2V9.3Z"/>
      </g>
    </mask>
  </defs>
  <!-- Generator: Adobe Illustrator 28.6.0, SVG Export Plug-In . SVG Version: 1.2.0 Build 709)  -->
  <g>
      <path class="cls-2" d="M76.3,24.7c-3.5,0-5.7-2-5.7-5.3s2-5.5,5.2-5.5h.3c.4,0,1,0,1.7.1v-4.1h2.3v14.4s-2.2.4-3.8.4ZM76.3,15.7c-2.2,0-3.3,1.2-3.3,3.6s1.3,3.6,3.4,3.6.9,0,1.5,0v-7c-.6-.1-1.1-.1-1.6-.1ZM45.1,24.4l-6.2-10.7v10.7h-2.1v-13.6h3l6.2,10.7v-10.7s2.2,0,2.2,0v13.6h-3ZM64.7,24.6c-1,0-2.1-.1-3.4-.4h-.1v-1.9h.2c1.1.3,2.1.5,3.1.5s2.6-.1,2.6-1.3-1.3-1.2-2.3-1.4h0c-.2,0-.4,0-.5-.1-1.5-.4-3.1-1-3.1-3s1.6-3.1,4.3-3.1,2.2.1,3,.3h.4v1.9h-.2c-.9-.2-1.9-.4-2.8-.4s-2.4.2-2.4,1.2,1,1,2.3,1.3c1.7.4,3.8.8,3.8,3.1s-1.7,3.3-4.7,3.3ZM86.5,24.6c-2.4,0-4.5-.4-4.5-3.4s3.4-3.3,5.4-3.3,1.2,0,1.4,0c0-1.8,0-2.3-2.7-2.3s-2.2.2-3.3.4h-.2s0-1.8,0-1.8h.1c1.2-.3,2.4-.4,3.5-.4,2.6,0,4.8.3,4.8,3.5v7h-.2c-1.8.2-3.2.2-4.4.2ZM87.3,19.5c-1.9,0-3.2.3-3.2,1.7s1.5,1.8,3,1.8,1.5,0,1.8,0v-3.4c-.4,0-1.5,0-1.6,0ZM54.6,24.6c-2.4,0-4.5-.4-4.5-3.4s3.4-3.3,5.4-3.3,1.2,0,1.4,0c0-1.8,0-2.3-2.7-2.3s-2.2.2-3.3.4h-.2s0-1.8,0-1.8h.1c1.2-.3,2.4-.4,3.5-.4,2.6,0,4.8.3,4.8,3.5v7h-.2c-1.8.2-3.2.2-4.4.2ZM55.3,19.5c-1.9,0-3.2.3-3.2,1.7s1.5,1.8,3,1.8,1.5,0,1.8,0v-3.4c-.4,0-1.5,0-1.6,0Z"/>
      <g class="cls-4">
        <path class="cls-2" d="M100.2,29v-4.5c-.9.1-1.4.1-1.7.1-.9,0-1.9-.2-2.7-.5-1.7-.7-2.8-2.6-2.8-4.9s.3-3.3,2.2-4.5c1-.6,2.1-.8,3.8-.8s1.4,0,2.2,0h1.3v14l-2.3,1ZM98.8,15.7c-2.3,0-3.5,1.2-3.5,3.5s1.8,3.6,3.2,3.6.8,0,1.7-.1v-7c-.7,0-1,0-1.4,0Z"/>
      </g>
      <g class="cls-1">
        <path class="cls-2" d="M26.6,2.7l-7.5,20.7c0,.3-.3.5-.5.6-.2.2-.5.3-.7.3h0s8,0,8,0c.6,0,1.2-.4,1.4-1l7.5-20.7h-8.1Z"/>
      </g>
      <path class="cls-2" d="M17.2,24.1c.5,0,.9-.2,1.1-.6,0,0,.1-.2.2-.3l2.8-7.6-1.6-4.4c0-.2-.2-.4-.4-.6-.2-.1-.4-.2-.7-.3-.2,0-.5,0-.7.1-.2,0-.4.3-.6.5,0,0-.1.2-.2.3l-2.8,7.6,1.6,4.5c.1.2.3.5.5.6.2.1.5.2.8.2Z"/>
      <g class="cls-5">
        <path class="cls-2" d="M17.8,10h-8.1c-.6,0-1.2.4-1.4,1L.8,31.6h8.1l7.5-20.7c0-.3.3-.5.5-.7.2-.2.5-.3.8-.3h0Z"/>
      </g>
    </g>
</svg>