<svg width="175" height="39" viewBox="0 0 175 39" fill="none" xmlns="http://www.w3.org/2000/svg">
<path fill-rule="evenodd" clip-rule="evenodd" d="M60.8322 31.2814C55.2579 35.3955 47.1769 37.5827 40.2183 37.5827C30.4656 37.5827 21.6833 33.9775 15.0379 27.9767C14.516 27.5052 14.9816 26.8615 15.6087 27.2268C22.7787 31.3988 31.6461 33.9118 40.8041 33.9118C46.9817 33.9118 53.7729 32.6292 60.022 29.979C60.964 29.58 61.7544 30.6008 60.8322 31.2814Z" fill="#777777"/>
<path fill-rule="evenodd" clip-rule="evenodd" d="M63.1433 28.6321C62.4302 27.7193 58.4309 28.1993 56.6337 28.4148C56.0893 28.4805 56.0047 28.0045 56.4951 27.6599C59.686 25.4191 64.9139 26.066 65.5217 26.8164C66.134 27.5735 65.3611 32.8149 62.3708 35.3162C61.9111 35.7008 61.4733 35.4957 61.6771 34.9878C62.3506 33.3071 63.8567 29.5453 63.1433 28.6321Z" fill="#777777"/>
<path fill-rule="evenodd" clip-rule="evenodd" d="M56.7592 11.8299V9.65205C56.761 9.32049 57.0102 9.09961 57.3116 9.10051L67.0715 9.09961C67.3832 9.09961 67.6338 9.32634 67.6338 9.6489V11.5168C67.6311 11.8303 67.3671 12.2388 66.8992 12.8875L61.8436 20.1056C63.72 20.0615 65.7057 20.3427 67.4107 21.3014C67.7949 21.5169 67.8979 21.8367 67.9285 22.1507V24.4748C67.9285 24.7946 67.5776 25.1653 67.2091 24.9719C64.2058 23.3987 60.2191 23.2268 56.8973 24.9917C56.5581 25.1721 56.2031 24.8072 56.2031 24.4865V22.278C56.2031 21.9245 56.2099 21.3198 56.5666 20.7813L62.4239 12.3782L57.3242 12.3778C57.0111 12.3782 56.761 12.156 56.7592 11.8299Z" fill="#777777"/>
<path fill-rule="evenodd" clip-rule="evenodd" d="M21.1493 25.4312H18.1797C17.8972 25.4123 17.6718 25.2005 17.6484 24.9292L17.6507 9.69036C17.6507 9.38535 17.9067 9.14197 18.2234 9.14197L20.9887 9.14107C21.278 9.15591 21.5101 9.37455 21.5281 9.65302V11.6423H21.5839C22.3046 9.71825 23.6627 8.82031 25.4914 8.82031C27.3485 8.82031 28.5128 9.7187 29.3441 11.6423C30.0652 9.71825 31.7001 8.82031 33.4465 8.82031C34.6935 8.82031 36.0521 9.33361 36.8834 10.488C37.8255 11.771 37.6325 13.6303 37.6325 15.266L37.6298 24.8833C37.6298 25.1874 37.3738 25.4317 37.0571 25.4317H34.0916C33.7933 25.4123 33.5589 25.1766 33.5589 24.8842L33.558 16.8055C33.558 16.1649 33.6134 14.5611 33.4743 13.952C33.2526 12.9254 32.5877 12.6365 31.7289 12.6365C31.0077 12.6365 30.2591 13.1175 29.9541 13.8872C29.6496 14.6569 29.677 15.9395 29.677 16.8055V24.8838C29.677 25.1879 29.421 25.4321 29.1048 25.4321H26.1388C25.8405 25.4128 25.6057 25.1771 25.6057 24.8847L25.603 16.8059C25.603 15.1063 25.8801 12.6055 23.7743 12.6055C21.6397 12.6055 21.7229 15.0424 21.7229 16.8059L21.722 24.8842C21.7224 25.1874 21.4656 25.4312 21.1493 25.4312Z" fill="#777777"/>
<path fill-rule="evenodd" clip-rule="evenodd" d="M76.0473 8.82031C80.4542 8.82031 82.8371 12.6051 82.8371 17.4146C82.8371 22.064 80.2045 25.7524 76.0473 25.7524C71.7236 25.7524 69.3672 21.9677 69.3672 17.254C69.3672 12.5079 71.751 8.82031 76.0473 8.82031ZM76.0743 11.9311C73.8848 11.9311 73.7467 14.9129 73.7467 16.7731C73.7467 18.6328 73.7192 22.6092 76.0473 22.6092C78.3484 22.6092 78.4586 19.4026 78.4586 17.447C78.4586 16.1644 78.4032 14.625 78.0146 13.4058C77.6821 12.3477 77.0163 11.9311 76.0743 11.9311Z" fill="#777777"/>
<path fill-rule="evenodd" clip-rule="evenodd" d="M88.5393 25.4297H85.581C85.2837 25.4104 85.0479 25.1747 85.0479 24.8823L85.043 9.63757C85.0682 9.35865 85.3142 9.14046 85.6134 9.14046L88.3675 9.13956C88.6271 9.15306 88.8408 9.32986 88.8952 9.56604V11.8973H88.9514C89.7832 9.81212 90.9466 8.81836 92.9975 8.81836C94.3278 8.81836 95.6311 9.29927 96.462 10.6147C97.238 11.8329 97.238 13.8852 97.238 15.3603V24.9497C97.2056 25.2197 96.9627 25.4293 96.6689 25.4293H93.693C93.4182 25.4117 93.1964 25.2098 93.1644 24.9497V16.6758C93.1644 15.0081 93.3588 12.5707 91.3074 12.5707C90.5862 12.5707 89.9213 13.0516 89.5889 13.789C89.1728 14.7193 89.117 15.6487 89.117 16.6758V24.8814C89.1125 25.1859 88.8561 25.4297 88.5393 25.4297Z" fill="#777777"/>
<path fill-rule="evenodd" clip-rule="evenodd" d="M48.9765 18.1529C48.9765 19.3104 49.0039 20.2741 48.4205 21.3029C47.9486 22.1379 47.1982 22.6525 46.3655 22.6525C45.2268 22.6525 44.5601 21.7843 44.5601 20.499C44.5601 17.9703 46.8284 17.5105 48.977 17.5105L48.9765 18.1529ZM51.9695 25.3927C51.7733 25.5695 51.4899 25.5807 51.2681 25.4615C50.2825 24.6423 50.1057 24.2635 49.5663 23.4834C47.9364 25.1434 46.7825 25.6419 44.6708 25.6419C42.1713 25.6419 40.2266 24.0988 40.2266 21.0136C40.2266 18.6037 41.5321 16.9648 43.3932 16.1609C45.0037 15.4537 47.254 15.3255 48.9765 15.1321V14.7465C48.9765 14.0393 49.0318 13.2044 48.6148 12.5935C48.2536 12.0469 47.5594 11.8219 46.948 11.8219C45.8157 11.8219 44.8094 12.4023 44.5615 13.6048C44.5102 13.8724 44.315 14.1374 44.0459 14.1509L41.1681 13.8391C40.9248 13.7843 40.6548 13.5895 40.7246 13.2183C41.3868 9.72734 44.5395 8.67285 47.3646 8.67285C48.8096 8.67285 50.6977 9.05749 51.8368 10.1511C53.2817 11.5007 53.1423 13.3011 53.1423 15.2616V19.8867C53.1423 21.2786 53.7204 21.8886 54.2629 22.6381C54.4527 22.9089 54.495 23.2292 54.253 23.4272C53.6466 23.936 52.5691 24.8717 51.9762 25.3994L51.9695 25.3927Z" fill="#777777"/>
<path fill-rule="evenodd" clip-rule="evenodd" d="M10.0611 18.1524C10.0611 19.3099 10.089 20.2735 9.50595 21.3024C9.03449 22.1373 8.28366 22.652 7.4505 22.652C6.31188 22.652 5.64518 21.7837 5.64518 20.4985C5.64518 17.9698 7.91387 17.51 10.0611 17.51V18.1524ZM13.055 25.3921C12.8588 25.5689 12.5749 25.5802 12.3536 25.461C11.3671 24.6417 11.1903 24.263 10.6518 23.4829C9.02144 25.1429 7.86753 25.6414 5.75675 25.6414C3.25683 25.6414 1.3125 24.0983 1.3125 21.0131C1.3125 18.6032 2.61757 16.9643 4.47912 16.1604C6.0901 15.4532 8.34034 15.325 10.0615 15.1315V14.746C10.0615 14.0388 10.1178 13.2038 9.70119 12.5929C9.3395 12.0463 8.64535 11.8214 8.03443 11.8214C6.90166 11.8214 5.89441 12.4017 5.64788 13.6042C5.59614 13.8719 5.40135 14.1369 5.13188 14.1504L2.25452 13.8386C2.0107 13.7833 1.74032 13.5889 1.8105 13.2173C2.47181 9.72637 5.62449 8.67188 8.45056 8.67188C9.89508 8.67188 11.7841 9.05651 12.9227 10.1501C14.3668 11.4997 14.2282 13.3001 14.2282 15.2606V19.8857C14.2282 21.2776 14.8058 21.8877 15.3484 22.6371C15.5378 22.908 15.581 23.2283 15.3389 23.4262C14.7321 23.935 13.6542 24.8707 13.0617 25.3984L13.055 25.3921Z" fill="#777777"/>
<path d="M111.002 25.4359L104.084 17.0486H104.05V25.4359H101.562V1.29688H104.05V15.003H104.084L110.014 9.30903H113.251L106.163 15.8892L114.172 25.4359H111.002Z" fill="#777777"/>
<path d="M117.066 5.93451C116.112 5.93451 115.328 5.15039 115.328 4.19577C115.328 3.2407 116.112 2.45703 117.066 2.45703C118.02 2.45703 118.804 3.2407 118.804 4.19577C118.804 5.15039 118.02 5.93451 117.066 5.93451ZM115.839 25.4367V9.30987H118.326V25.4367H115.839Z" fill="#777777"/>
<path d="M132.307 25.4362V15.5148C132.307 13.503 131.967 11.2528 129.513 11.2528C127.536 11.2528 125.73 12.6505 124.503 13.7081V25.4366H122.016V9.30932H124.06L124.401 11.2528C126.173 9.8892 127.912 8.90039 130.161 8.90039C132.478 8.90039 134.795 10.5708 134.795 14.5944V25.4366L132.307 25.4362Z" fill="#777777"/>
<path d="M145.769 25.7769C141.271 25.7769 137.488 23.1519 137.488 17.5942C137.488 12.5827 141.1 8.9001 145.803 8.9001C146.962 8.9001 147.78 9.00222 148.427 9.17272V1.29688H150.915V24.6176C149.927 25.1975 148.053 25.7769 145.769 25.7769ZM148.428 11.4913C147.781 11.2525 147.201 11.0824 145.94 11.0824C142.771 11.0824 140.01 13.5715 140.01 17.4242C140.01 21.0722 142.021 23.6634 146.213 23.6634C147.03 23.6634 147.917 23.4929 148.428 23.2545V11.4913Z" fill="#777777"/>
<path d="M157.395 25.7769C155.418 25.7769 154.566 24.5155 154.566 22.8105V1.29688H157.054V21.6854C157.054 23.2194 157.429 23.5267 158.383 23.5267C158.554 23.5267 158.826 23.5267 159.235 23.4245L159.542 25.2317C158.792 25.6064 158.213 25.7769 157.395 25.7769Z" fill="#777777"/>
<path d="M163.557 17.7997C163.557 20.8682 165.329 23.6291 168.805 23.6291C170.271 23.6291 171.77 23.0501 172.725 22.4365L173.508 24.209C172.316 25.0273 170.271 25.7772 168.499 25.7772C163.353 25.7772 160.898 21.6519 160.898 17.0489C160.898 12.3779 163.557 8.90039 167.442 8.90039C171.599 8.90039 173.883 12.2078 173.883 17.2198C173.883 17.3903 173.883 17.5945 173.883 17.7997H163.557ZM167.476 11.0148C165.091 11.0148 163.591 13.1287 163.591 15.6858H171.191C171.191 13.4355 169.93 11.0148 167.476 11.0148Z" fill="#777777"/>
</svg>
