<svg width="118" height="33" viewBox="0 0 118 33" fill="none" xmlns="http://www.w3.org/2000/svg">
<g clipPath="url(#clip0_592_65587)">
<mask id="mask0_592_65587" style="mask-type:luminance" maskUnits="userSpaceOnUse" x="-78" y="-135" width="275" height="358">
<path d="M-77.4453 -134.262H196.004V222.354H-77.4453V-134.262Z" fill="white"/>
</mask>
<g mask="url(#mask0_592_65587)">
<path fill-rule="evenodd" clip-rule="evenodd" d="M40.2031 17.0199C40.3504 12.3306 40.7224 8.84277 46.2178 8.84277C51.7131 8.84277 52.0774 12.3306 52.2246 17.0199V19.6474C52.2246 24.5614 51.8604 28.1501 46.2178 28.1501C40.5752 28.1501 40.2031 24.5614 40.2031 19.6474V17.0199ZM43.7375 21.3681C43.7375 22.895 43.8615 25.3753 46.2178 25.3753C48.667 25.3753 48.698 22.8408 48.698 21.0736V16.3611C48.698 14.8884 48.7678 11.6176 46.2178 11.6176C43.5205 11.6176 43.7375 14.8342 43.7375 16.2603V21.3681ZM62.8588 9.28457H66.3001V27.7083H62.7115L60.0375 21.1511C59.1306 18.9653 58.3943 16.7254 57.5882 13.8266H57.5417C57.658 15.3535 57.8052 17.2214 57.906 19.0816C58.0068 20.9263 58.0765 22.771 58.0765 24.2437V27.7083H54.6429V9.28457H58.2005L60.8746 15.989C61.7582 18.1283 62.4945 20.314 63.3316 23.3058H63.3781C63.2541 21.6394 63.1301 19.8489 63.037 18.0818C62.9363 16.3068 62.8588 14.5396 62.8588 12.8965V9.28457ZM69.0517 27.7083V9.28457H78.717V11.9819H72.4853V16.6246H78.2287V19.3296H72.4853V25.0032H78.717V27.7083H69.0517ZM95.9935 27.8555H94.4279V24.98H94.3736C93.8388 27.065 92.1956 28.1501 90.1572 28.1501C84.6851 28.1501 84.2665 22.6935 84.2665 18.3685C84.2665 14.0746 85.0261 8.91253 90.3509 8.91253C93.8621 8.91253 95.8695 11.199 95.823 14.6404H93.7613C93.738 12.3771 92.7847 10.8037 90.4517 10.7572C86.429 10.6875 86.3748 15.2992 86.3748 18.446C86.3748 21.2441 86.2275 26.1349 89.8626 26.3054C93.6373 26.4759 93.9861 23.0113 93.9551 20.0892H89.8626V18.2523H95.9935V27.8555ZM107.674 27.7083C107.527 27.7315 107.379 27.7548 107.232 27.8013C105.589 27.8788 104.977 27.7315 104.783 25.8636H104.736C104.264 27.065 103.016 28.0726 101.714 28.0726C98.9931 28.0726 98.2103 26.5534 98.2103 24.0731C98.2103 23.5538 98.28 21.5851 100.171 20.7558C101.272 20.2597 104.023 19.2289 104.264 19.0351C104.682 18.7173 104.636 18.1748 104.636 17.4617C104.636 15.9193 104.047 15.3225 102.473 15.3225C100.706 15.3225 100.466 16.1363 100.489 17.733H98.7451C98.6443 14.9117 100.047 13.6793 102.791 13.6793C106.845 13.6793 106.504 17.0664 106.504 17.3919V25.228C106.504 25.569 106.449 26.0573 106.845 26.2589C107.116 26.3286 107.41 26.3054 107.674 26.2821V27.7083ZM104.488 20.3372C103.527 20.9031 102.45 21.3216 101.419 21.8099C100.512 22.2284 100.218 23.236 100.218 24.1661C100.218 25.5458 100.559 26.4294 102.132 26.4294C102.869 26.4294 104.488 25.8636 104.488 23.6546V20.3372ZM115.285 17.7097C115.363 16.0898 114.774 15.3225 113.123 15.3225C111.751 15.3225 110.968 15.9658 110.968 17.3842C110.968 19.1591 112.418 19.3761 113.743 19.9419C115.704 20.8255 117.665 21.3216 117.665 23.8716C117.665 26.4759 115.851 28.0958 113.053 28.0726C111.852 28.0958 110.379 27.6773 109.666 26.6464C108.86 25.569 108.906 24.6622 108.906 23.7243H110.743C110.674 25.3985 111.239 26.4294 113.053 26.4294C114.627 26.4294 115.657 25.7861 115.657 24.1196C115.657 22.1742 113.689 22.0037 112.294 21.4146C110.185 20.6318 108.953 19.9187 108.953 17.5392C108.953 15.1752 110.596 13.6793 112.952 13.6793C115.657 13.6793 117.223 14.9039 117.177 17.7097H115.285Z" fill="#777777"/>
<path d="M32.7286 21.4518C32.0543 24.3816 30.2871 27.2107 27.6363 29.1406C27.6208 29.1509 27.6053 29.1561 27.5898 29.1561C27.5743 29.1561 27.5588 29.1509 27.5433 29.1406C27.5123 29.1251 27.5045 29.0941 27.5045 29.0631C28.1323 25.3892 26.8535 21.3355 23.4121 18.7312C23.3811 18.7157 23.3656 18.677 23.3811 18.6382C23.3966 18.6072 23.4276 18.584 23.4663 18.584C27.2177 18.7855 30.2561 19.8319 32.6976 21.3588C32.7208 21.382 32.7363 21.413 32.7286 21.4518Z" fill="#777777"/>
<path d="M23.7333 12.1365L24.5549 12.1133C27.4769 12.1133 30.2905 12.9581 32.3832 14.1052L32.422 14.1517C33.2125 16.4305 33.2746 18.6627 32.9878 20.5074C32.9878 20.5307 32.9645 20.5539 32.9413 20.5694L32.9103 20.5772L32.8638 20.5617C26.6631 16.8955 18.7263 17.5311 12.8666 19.5463C12.8356 19.5541 12.7969 19.5463 12.7814 19.5231C12.7581 19.4921 12.7504 19.4611 12.7659 19.4301C15.0989 14.9888 18.5557 12.9349 22.0979 12.3148L22.9195 12.1985L23.7333 12.1365Z" fill="#777777"/>
<path d="M13.8462 0.935886C14.8616 0.726614 15.9079 0.610352 16.9698 0.610352H17.1171C18.1169 0.610352 19.1245 0.711112 20.1476 0.912634C21.1242 1.09865 22.1008 1.38543 23.0309 1.75747C23.0619 1.77297 23.0852 1.80398 23.0852 1.83498C23.0852 1.88149 23.0542 1.91249 23.0154 1.92024H22.9922C22.1861 1.78073 21.3723 1.71097 20.5739 1.71097C12.3736 1.71097 6.07989 8.48519 6.07989 16.2128C6.07989 24.9402 14.04 32.257 23.9843 30.4743C24.9221 30.3038 25.6895 30.0712 26.263 29.8852C26.3018 29.8697 26.3405 29.893 26.356 29.924C26.3793 29.9627 26.3638 30.0092 26.3328 30.0325C24.9996 30.9703 23.5425 31.6912 22.0001 32.1872C11.893 35.4503 1.27438 28.149 0.902344 17.3676V16.2205C1.15037 9.16726 5.97138 3.29214 12.3503 1.31568L13.0866 1.1064L13.8462 0.935886Z" fill="#777777"/>
<path d="M20.2863 2.77344C24.8748 2.78119 29.4711 5.07543 32.0133 9.73367C32.4551 10.5475 32.8194 11.4079 33.0907 12.2992C33.0984 12.3379 33.0829 12.3845 33.0442 12.4C33.0054 12.4155 32.9589 12.4 32.9434 12.369C32.4009 11.4621 31.7343 10.6483 30.9825 9.91969C26.1149 5.2382 17.9611 5.47072 13.4811 11.1288C10.5203 14.8647 10.1173 20.1043 12.3727 24.22C13.5044 26.3049 15.2173 27.9791 17.31 29.0642C17.341 29.0797 17.3565 29.103 17.3565 29.1417C17.3565 29.1805 17.3255 29.2192 17.279 29.2192H17.2558C16.3567 29.01 15.4808 28.7077 14.6437 28.3201C7.44322 24.995 5.01721 16.5234 8.37332 10.0127C10.6986 5.50948 14.9848 3.09122 19.4027 2.80444L19.8445 2.78119L20.2863 2.77344Z" fill="#777777"/>
<path fill-rule="evenodd" clip-rule="evenodd" d="M32.6513 27.8701C32.7959 27.8701 32.907 27.9063 32.9845 27.9786C33.062 28.051 33.1008 28.1621 33.1008 28.3119C33.1008 28.4256 33.0775 28.5186 33.031 28.5909C32.9845 28.6581 32.9148 28.7046 32.8218 28.7305C32.9044 28.746 32.9665 28.7744 33.0078 28.8157C33.044 28.8571 33.0672 28.9268 33.0775 29.025C33.0827 29.056 33.0853 29.0896 33.0853 29.1258C33.0905 29.1619 33.0931 29.2033 33.0931 29.2498C33.0931 29.3376 33.0982 29.4074 33.1086 29.459C33.1189 29.5055 33.1396 29.5365 33.1706 29.552V29.5675H32.7985C32.783 29.5417 32.7727 29.5133 32.7675 29.4823C32.7623 29.4513 32.7572 29.4203 32.752 29.3893L32.7443 29.0637C32.7443 28.9966 32.7288 28.9449 32.6978 28.9087C32.6668 28.8674 32.6151 28.8467 32.5427 28.8467H32.3645V29.5675H32.0234V27.8701M32.504 28.6142C32.5867 28.6142 32.6487 28.5935 32.69 28.5522C32.7365 28.516 32.7598 28.4514 32.7598 28.3584C32.7598 28.2034 32.6797 28.1259 32.5195 28.1259H32.3645V28.6142H32.504Z" fill="#777777"/>
<path fill-rule="evenodd" clip-rule="evenodd" d="M32.527 30.2416C31.6977 30.2416 31.0156 29.5672 31.0156 28.7302C31.0156 27.8931 31.6977 27.2188 32.527 27.2188C33.3641 27.2188 34.0384 27.8931 34.0384 28.7302C34.0384 29.5672 33.3641 30.2416 32.527 30.2416ZM33.7904 28.7302C33.7904 28.0326 33.2246 27.4668 32.527 27.4668C31.8372 27.4668 31.2714 28.0326 31.2714 28.7302C31.2714 29.4277 31.8372 29.9858 32.527 29.9858C33.2246 29.9858 33.7904 29.4277 33.7904 28.7302Z" fill="#777777"/>
</g>
</g>
<defs>
<clipPath id="clip0_592_65587">
<rect width="116.882" height="32.3984" fill="white" transform="translate(0.84375 0.602539)"/>
</clipPath>
</defs>
</svg>
