<svg width="89" height="30" viewBox="0 0 89 30" fill="none" xmlns="http://www.w3.org/2000/svg">
<path d="M63.1645 19.9723C64.9028 19.4651 65.9216 17.971 65.9216 15.9289C65.9216 14.6766 65.5807 13.6916 64.8925 12.9556C62.8861 10.8098 59.4779 11.7371 58.6282 14.66C58.28 15.8577 58.2806 15.9491 58.644 17.2562C58.9693 18.4264 59.9974 19.6388 60.8138 19.815C61.056 19.8673 61.4127 19.9783 61.6064 20.0617C62.0966 20.2727 62.1443 20.27 63.1645 19.9723ZM60.0111 29.4228C58.1848 28.8262 56.534 27.4202 55.6687 25.7244C55.4205 25.2378 55.5457 25.1372 57.1805 24.5093C58.3318 24.0671 58.7002 24.018 58.7002 24.3069C58.7002 24.7263 59.7956 25.8527 60.5468 26.2058C62.0494 26.9122 64.0254 26.4886 64.9632 25.2591C65.3959 24.6918 65.7813 23.1832 65.7109 22.3324L65.6734 21.8804L64.9609 22.3771C63.9473 23.0837 62.2713 23.3945 60.9019 23.1298C59.2635 22.8132 58.2261 22.2676 57.1273 21.1446C55.9669 19.9587 55.4673 18.998 55.1034 17.2529C54.3746 13.7573 56.593 10.0171 60.0543 8.90587C61.8129 8.34128 64.2785 8.70482 65.3187 9.68207L65.7186 10.0577L65.7761 9.55527L65.8335 9.05284H67.4187H69.0039L69.0554 16.0981C69.1094 23.5001 69.029 24.512 68.261 26.0863C67.5007 27.6451 66.0262 28.8727 64.2153 29.4546C63.0719 29.8221 61.1898 29.8078 60.0111 29.4228Z" fill="#777777"/>
<path d="M33.0333 19.4112C34.3967 18.4664 35.0623 16.4126 34.5813 14.6344C34.1804 13.1525 32.4753 11.7823 31.032 11.7823C28.704 11.7823 27.0105 13.5008 27.0014 15.8723C26.9942 17.7628 28.1645 19.5064 29.7074 19.9037C30.708 20.1614 32.2885 19.9274 33.0333 19.4112ZM29.5017 23.1229C26.7122 22.6257 24.6885 20.8051 23.7352 17.9352C23.2949 16.6095 23.4416 14.3133 24.0498 13.0129C25.3589 10.2134 27.849 8.60645 30.8626 8.61626C36.6049 8.63494 40.0016 14.466 37.3035 19.6732C36.532 21.1622 34.3288 22.75 32.5907 23.0697C31.0357 23.3557 30.8281 23.3593 29.5017 23.1229Z" fill="#777777"/>
<path d="M79.3076 15.248C79.958 14.9586 79.7179 15.0372 79.8322 15.0341C79.9466 15.031 80.6796 14.7153 81.3075 14.4246C81.9354 14.134 82.575 13.8962 82.7288 13.8962C82.8827 13.8962 81.977 14.2863 81.977 14.2095C81.977 14.1327 83.445 13.4686 83.9784 13.2873C84.921 12.9669 84.9395 12.9481 84.6393 12.6163C83.752 11.6359 81.9585 11.4405 80.7647 12.1941C79.7968 12.8051 79.0249 13.8425 78.8758 14.7329C78.7421 15.5316 78.6777 15.5282 79.3076 15.248ZM81.1592 23.1203C78.3745 22.4668 76.5489 20.7083 75.6245 17.7889C75.3739 16.9976 75.3823 14.7001 75.6387 13.9088C76.7188 10.5743 79.1731 8.6123 82.2641 8.6123C84.0289 8.6123 85.4866 9.2116 86.7528 10.4577C87.6581 11.3487 88.8209 13.2963 88.8209 13.9216C88.8209 14.3261 88.6101 14.4482 86.4431 15.2992C84.7005 15.9835 83.8596 16.3282 82.4802 16.9237C82.238 17.0282 81.8813 17.1781 81.6876 17.2567C81.4938 17.3353 80.9787 17.5522 80.5427 17.7387C80.1068 17.9252 79.6392 18.1119 79.5035 18.1535C79.0802 18.2833 80.5368 19.6436 81.3353 19.8642C82.9048 20.2978 84.2859 19.9996 85.3805 18.9907C85.7929 18.6105 86.2112 18.2995 86.3101 18.2995C86.6086 18.2995 88.8146 19.7824 88.8179 19.9853C88.8239 20.3601 87.2777 21.7729 86.2557 22.3265C85.3184 22.8342 83.1694 23.4382 82.4802 23.3877C82.3349 23.377 81.7404 23.2567 81.1592 23.1203Z" fill="#777777"/>
<path d="M10.0016 23.0464C7.85189 22.7028 5.77693 21.565 3.96223 19.7346C2.68843 18.4497 1.85098 17.092 1.14913 15.1739C0.702888 13.9543 0.713194 9.93411 1.16573 8.70028C2.59644 4.79943 5.33523 2.18201 9.20897 1.01346C10.4399 0.642147 14.3537 0.69423 15.4616 1.09667C17.1414 1.70679 19.1979 2.8949 19.7724 3.58714C19.9829 3.84077 19.8756 4.01332 18.8867 5.01105C18.2679 5.63548 17.7196 6.14627 17.6684 6.14616C17.6171 6.14604 17.3447 5.94772 17.063 5.70545C15.6037 4.45045 12.7979 3.78671 10.6724 4.1937C8.25188 4.65716 6.24437 6.18996 5.1166 8.43572C4.55216 9.55968 4.18565 9.62506 4.18565 11.9587C4.18565 14.1758 4.57373 14.4053 5.01856 15.3547C5.28095 15.9147 5.94738 16.8465 6.49952 17.4253C8.51435 19.5377 11.4593 20.3687 14.2767 19.6198C15.8573 19.1997 16.5344 18.8382 17.521 17.888C18.3837 17.057 18.9459 16.0273 19.1454 14.9126L19.263 14.2557L15.6891 14.2081L12.1151 14.1603V12.5157V10.871L17.2229 10.8857C20.0322 10.8937 22.3793 10.9007 22.4385 10.9011C22.4978 10.9017 22.6316 11.3265 22.7358 11.8455C23.1282 13.7991 22.4082 16.7582 21.0265 18.8706C19.8885 20.6105 18.6704 21.5495 16.0781 22.6852C15.0029 23.1563 11.8586 23.3432 10.0016 23.0464Z" fill="#777777"/>
<path d="M47.838 19.8576C48.6576 19.6524 49.7571 18.6201 50.1601 17.6775C50.3216 17.2998 50.5813 16.573 50.543 15.8468C50.4882 14.8099 50.2678 14.0728 50.0506 13.8097C49.1331 12.6983 48.6526 12.2909 47.9794 12.0534C46.4717 11.5214 45.0686 11.8124 43.9342 12.8923C41.7161 15.0038 42.567 18.9238 45.4558 19.902C46.2836 20.1824 46.5623 20.1772 47.838 19.8576ZM44.7991 23.0506C42.9288 22.656 40.9752 21.1684 40.0891 19.4643C38.6128 16.6249 38.9879 13.3323 41.0475 11.0526C43.9858 7.80021 49.1657 7.80168 52.159 11.0558C54.7342 13.8554 54.4672 18.9374 51.6167 21.3776C50.258 22.5407 48.9353 23.0645 47.1539 23.145C46.2899 23.184 45.2302 23.1415 44.7991 23.0506Z" fill="#777777"/>
<path d="M70.8516 12.1347V1.37793L72.5688 1.42834L74.2861 1.47875V12.1347V22.7906L72.5688 22.8411L70.8516 22.8915V12.1347Z" fill="#777777"/>
</svg>
