<svg width="144" height="55" viewBox="0 0 144 55" fill="none" xmlns="http://www.w3.org/2000/svg">
    <path class="cls-1" fill="#777777" d="M29.8 15h10c2.8 0 5.5.9 7.7 2.6 2.1 1.6 3.6 3.8 4.4 6.3 0 .2 0 .3.2.4.4-.3.7-.4 1-.8 1.5-1.3 3.2-2.5 4.7-3.8 1.6-1.3 3.2-2.6 4.9-3.8 1.1-.9 2.2-1.7 3.3-2.6.2-.2.3 0 .4 0 .7.5 1.4 1.1 2.1 1.6.5.4 1.1.9 1.6 1.3-4.5 3.6-9 7.1-13.6 10.6.4.4.9.7 1.3 1 .5.4 1.1.9 1.6 1.3.2.2.3 0 .4 0 1.4-1.2 2.9-2.3 4.4-3.4 1.6-1.3 3.2-2.6 4.9-3.8 1.3-1 2.6-2.1 3.8-2.9.2 0 .3-.2.4 0 1.3 1 2.5 2 3.8 2.9-4.5 3.6-9 7.1-13.5 10.6.3.3.5.4.9.7.6.5 1.3 1 2 1.5.3.2.4.2.6 0 1.1-.9 2.1-1.7 3.2-2.6 2.1-1.5 4-3.2 6.1-4.7 1.3-1 2.5-2 3.8-2.9.2-.2.3-.3.3-.5v-8.6c0-.3 0-.4.4-.4h4.7c.2 0 .4.1.4.4v19.3q0 .3.4.3h9.7c.3 0 .4 0 .4.4v4.2q0 .3-.3.3H80.8c-.3 0-.4 0-.4-.4v-9c-.3.2-.4.3-.5.4-3.7 2.9-7.3 5.7-10.9 8.5-.9.6-1.6 1.3-2.5 2-.2.2-.3.2-.4 0-2.2-1.8-4.5-3.6-6.8-5.4-2.2-1.8-4.5-3.6-6.8-5.4l-.3-.3c0 .2 0 .3-.2.3-.9 3-2.7 5.4-5.4 7.1-1.5 1-3.3 1.6-5.2 1.9H29.9V14.8l.3.3H30zm5.7 12.5v7.2c0 .3 0 .4.4.4h4.9c1.7-.3 3.1-1.1 4.2-2.5 1.4-1.9 2.1-4 1.6-6.3-.3-2.1-1.3-3.7-2.9-4.9-1.1-.9-2.2-1.3-3.7-1.3h-4.4c-.3 0-.4 0-.4.4v7.1h.2zM98.4 27.5v-12c0-.3 0-.4.4-.4h4.8c.3 0 .4 0 .4.4v19.1c0 .3.2.4.4.4h9.6c.3 0 .4 0 .4.3v4.3q0 .3-.3.3H98.7c-.3 0-.4 0-.4-.4V27.4z"></path>
</svg>